<svg width="24" height="24" viewBox="0 0 24 24" fill="none" xmlns="http://www.w3.org/2000/svg">
<path fill-rule="evenodd" clip-rule="evenodd" d="M19.0711 19.071C18.6806 19.4616 18.0474 19.4616 17.6569 19.071L4.92898 6.34311C4.53846 5.95259 4.53846 5.31942 4.92898 4.9289C5.31951 4.53837 5.95267 4.53837 6.3432 4.9289L19.0711 17.6568C19.4616 18.0473 19.4616 18.6805 19.0711 19.071Z" fill="#262626"/>
<path fill-rule="evenodd" clip-rule="evenodd" d="M4.92903 19.0711C4.53851 18.6805 4.53851 18.0474 4.92903 17.6568L17.657 4.92892C18.0475 4.5384 18.6806 4.5384 19.0712 4.92892C19.4617 5.31945 19.4617 5.95261 19.0712 6.34314L6.34324 19.0711C5.95272 19.4616 5.31955 19.4616 4.92903 19.0711Z" fill="#262626"/>
</svg>
