<svg width="16" height="16" viewBox="0 0 16 16" fill="none" xmlns="http://www.w3.org/2000/svg">
<path d="M9.33341 1.33337L13.3334 5.33337V13.3334C13.3334 13.687 13.1929 14.0261 12.9429 14.2762C12.6928 14.5262 12.3537 14.6667 12.0001 14.6667H4.00008C3.64646 14.6667 3.30732 14.5262 3.05727 14.2762C2.80722 14.0261 2.66675 13.687 2.66675 13.3334V2.66671C2.66675 2.31309 2.80722 1.97395 3.05727 1.7239C3.30732 1.47385 3.64646 1.33337 4.00008 1.33337H9.33341ZM12.0001 13.3334V6.00004H8.66675V2.66671H4.00008V13.3334H12.0001ZM7.28008 8.20671C7.12008 7.69337 6.76675 6.05337 7.70008 6.02671C8.63341 6.00004 8.02008 8.10671 8.02008 8.10671C8.28008 9.10004 9.36675 9.81337 9.36675 9.81337C9.70008 9.71337 11.6001 9.49337 11.3334 10.48C11.0467 11.4667 9.00008 10.54 9.00008 10.54C7.70008 10.6334 6.72675 10.98 6.72675 10.98C5.97341 12.3867 5.09341 13 4.73341 12.4067C4.28675 11.6667 6.15341 10.7134 6.15341 10.7134C7.12008 9.14671 7.26675 8.23337 7.28008 8.20671ZM7.71341 8.76671C7.44675 9.63337 6.91341 10.56 6.91341 10.56C7.48008 10.3334 8.72008 10.0734 8.72008 10.0734C7.96008 9.40671 7.72675 8.77337 7.71341 8.76671ZM9.80675 10.2134C9.80675 10.2134 10.9734 10.6467 11.0001 10.4734C11.0467 10.2934 10.1134 10.1334 9.80675 10.2134ZM6.03341 11.2067C5.52008 11.4067 5.02675 12.26 5.14675 12.26C5.26675 12.2667 5.75341 11.86 6.03341 11.2067ZM7.71341 7.50671C7.71341 7.47337 8.00008 6.38671 7.71341 6.35337C7.51341 6.33337 7.70675 7.48004 7.71341 7.50671Z" fill="#0D65B3"/>
</svg>
