<svg width="21" height="20" viewBox="0 0 21 20" fill="none" xmlns="http://www.w3.org/2000/svg">
<path fill-rule="evenodd" clip-rule="evenodd" d="M5.3574 2.00005C5.27088 1.99873 5.1893 2.02189 5.12331 2.06193L5.10634 2.07222L5.08898 2.08183C4.76307 2.26226 4.45798 2.4731 4.17817 2.71082C3.49177 3.32628 3.05869 3.99665 2.91881 4.76978C2.8023 5.48991 2.86486 6.22633 3.10253 6.92106L3.10687 6.93374L3.11086 6.94652C3.47738 8.11959 4.16032 9.17628 4.9961 10.2599C5.93137 11.4476 6.99537 12.5257 8.10417 13.6492C8.24049 13.7873 8.37749 13.9262 8.51501 14.066L8.52042 14.0715L8.52575 14.077C9.48264 15.0803 10.5557 15.9791 11.7252 16.7562L11.7345 16.7624L11.7345 16.7624C12.6633 17.3946 13.7405 17.8095 14.8774 17.9696C15.037 17.9863 15.1965 17.9964 15.3575 17.9998C16.7803 17.9657 17.8502 17.3382 18.7407 16.2262L18.7511 16.2131L18.762 16.2004C18.8226 16.1297 18.8541 16.0497 18.8605 15.9721C18.867 15.8948 18.8491 15.8141 18.8037 15.7396L18.7904 15.7178L18.7782 15.6952C18.334 14.8752 17.6204 14.2024 16.7333 13.7838L16.7018 13.769L16.6715 13.752C16.6526 13.7414 16.6271 13.7341 16.5984 13.7347C16.5698 13.7352 16.5451 13.7434 16.5276 13.7541L16.5264 13.7549C16.3666 13.8523 16.1636 13.9783 15.9547 14.1081C15.7152 14.2569 15.4678 14.4105 15.2686 14.5314L15.2624 14.5352L15.2624 14.5352C14.9301 14.7337 14.5878 14.9161 14.2367 15.0819C13.9287 15.2318 13.5858 15.2941 13.2466 15.2649C12.9094 15.2358 12.5832 15.1167 12.3059 14.916C12.2697 14.8909 12.2326 14.8652 12.1946 14.8389C11.936 14.66 11.6396 14.4549 11.3617 14.2275L11.3575 14.2241C10.0385 13.1332 8.82197 11.9339 7.72222 10.6397C7.25005 10.0876 6.81114 9.49289 6.39925 8.93478C6.27663 8.76864 6.15642 8.60575 6.03843 8.44819C5.79866 8.13456 5.66341 7.75106 5.65965 7.35097C5.65597 6.95875 5.77895 6.58 6.0044 6.26553C6.19727 5.97575 6.41857 5.69586 6.60866 5.45545C6.65509 5.39673 6.69965 5.34037 6.74149 5.28679L6.74286 5.28503C6.87626 5.11497 7.01139 4.94756 7.14138 4.78653L7.16469 4.75765C7.29562 4.59543 7.42145 4.43924 7.54384 4.28271L7.5347 4.25931C7.1856 3.36513 6.52122 2.60014 5.6399 2.10011L5.61348 2.08512L5.58801 2.06855C5.52415 2.027 5.4439 2.00138 5.3574 2.00005ZM4.10465 0.340756C4.49268 0.110152 4.93816 -0.00659634 5.388 0.000287697C5.83406 0.00711416 6.27222 0.135332 6.65077 0.374231C7.89763 1.0886 8.86549 2.18816 9.38673 3.50393C9.52785 3.81872 9.58271 4.16585 9.54317 4.51078C9.50218 4.86829 9.36202 5.20423 9.14277 5.48467C9.00171 5.66574 8.85873 5.84315 8.721 6.01379L8.69998 6.03984C8.56816 6.20315 8.44139 6.3602 8.31712 6.51861C8.25934 6.5926 8.20418 6.66248 8.15133 6.72944C7.98007 6.94638 7.83299 7.13271 7.69913 7.3294C7.81488 7.48455 7.92757 7.63718 8.03853 7.78747C8.44156 8.33336 8.82177 8.84836 9.24316 9.34097L9.24532 9.3435C10.2683 10.5475 11.4008 11.6644 12.6301 12.6812C12.8403 12.853 13.063 13.0073 13.3245 13.1885C13.356 13.2104 13.3881 13.2326 13.4208 13.2553C13.6991 13.1225 13.9703 12.9772 14.2337 12.82C14.4775 12.6719 14.6729 12.5502 14.8718 12.4263C15.0587 12.3098 15.2488 12.1914 15.4854 12.0472C15.8104 11.8487 16.1827 11.7421 16.561 11.735C16.9269 11.7282 17.2905 11.8145 17.6144 11.9882C18.8547 12.5803 19.8764 13.5341 20.5256 14.7222C20.7788 15.1484 20.895 15.642 20.8536 16.1385C20.8119 16.638 20.6135 17.1078 20.2923 17.4881C19.0953 18.9776 17.4982 19.9569 15.3791 19.9998L15.36 20.0002L15.341 19.9998C15.1087 19.9957 14.8783 19.9812 14.6482 19.9565L14.633 19.9548L14.6179 19.9527C13.1772 19.7529 11.8042 19.2281 10.6138 18.4189C9.32591 17.5627 8.14182 16.5714 7.08393 15.4631C6.95017 15.3272 6.81534 15.1906 6.6798 15.0533C5.57937 13.9388 4.43167 12.7765 3.42153 11.4931L3.41553 11.4855L3.41557 11.4855C2.53342 10.3421 1.67975 9.06433 1.20583 7.55561C0.864738 6.55177 0.77544 5.48415 0.946216 4.43971L0.94739 4.43253L0.948669 4.42536C1.18797 3.08468 1.93197 2.03553 2.85432 1.21162L2.86282 1.20403L2.87148 1.19664C3.25198 0.872029 3.66519 0.585391 4.10465 0.340756Z" fill="#262626"/>
</svg>
